<?xml version="1.0" standalone="no"?><!DOCTYPE svg PUBLIC "-//W3C//DTD SVG 1.1//EN" "http://www.w3.org/Graphics/SVG/1.1/DTD/svg11.dtd"><svg t="1556447823521" class="icon" style="" viewBox="0 0 1024 1024" version="1.1" xmlns="http://www.w3.org/2000/svg" p-id="1977" xmlns:xlink="http://www.w3.org/1999/xlink" width="200" height="200"><defs><style type="text/css"></style></defs><path d="M535.9 165.2l96.5 195.4c3.9 7.9 11.4 13.3 20.1 14.6l215.7 31.3c21.9 3.2 30.6 30 14.8 45.5L726.8 604.1c-6.3 6.1-9.1 14.9-7.7 23.6L756 842.5c3.7 21.8-19.1 38.4-38.7 28.1L524.4 769.2c-7.8-4.1-17-4.1-24.8 0L306.7 870.6c-19.6 10.3-42.4-6.3-38.7-28.1l36.8-214.8c1.5-8.6-1.4-17.5-7.7-23.6L141.1 452c-15.8-15.4-7.1-42.3 14.8-45.5l215.7-31.3c8.7-1.3 16.2-6.7 20.1-14.6l96.5-195.4c9.7-19.9 37.9-19.9 47.7 0z" fill="#282828" p-id="1978"></path></svg>